<svg xmlns="http://www.w3.org/2000/svg" viewBox="0 0 975.11 157.28"><defs><style>.cls-1{fill:#210320;}</style></defs><g id="Layer_2" data-name="Layer 2"><g id="Layer_1-2" data-name="Layer 1"><path class="cls-1" d="M308.06,52.77H278.7V33.42H361V52.77H331.62v71.09H308.06Z"/><path class="cls-1" d="M366.64,78.58c0-31.21,17.64-46.74,47.39-46.74s47.4,15.53,47.4,46.74-17.77,46.86-47.4,46.86S366.64,109.91,366.64,78.58Zm70.56,3V75.68c0-15.93-8-25.41-23.17-25.41s-23.17,9.48-23.17,25.41V81.6c0,15.93,7.9,25.41,23.17,25.41S437.2,97.53,437.2,81.6Z"/><path class="cls-1" d="M477.22,33.42h20.93l32.92,42c1.84,2.23,6,7.9,7.5,10.27l.66-.14V33.42h21.85v90.44h-20.8L505.4,79.63a80.61,80.61,0,0,1-5.67-8l-.65.13v52.13H477.22Z"/><path class="cls-1" d="M580.83,33.42h49.76c18.3,0,29.23,11.85,29.23,29.75,0,18.3-11.33,30.15-29.76,30.15H604.39v30.54H580.83Zm43.7,41.73c7.38,0,11.33-4.21,11.33-11.71S632,51.72,624.53,51.72H604.39V75.15Z"/><path class="cls-1" d="M672.45,88.71V33.42h23.7v54.9c0,11.72,6.32,18.69,18.17,18.69s18.43-7,18.43-18.69V33.42h23.56V88.71c0,24.36-15.53,36.73-42,36.73S672.45,113.07,672.45,88.71Z"/><path class="cls-1" d="M775.79,33.42h34.36L821.08,73.7c1.32,4.35,3.69,14.09,5,20.41h1.06c1.05-5,3-13.69,4.74-20.54l11.06-40.15h33.43v90.44h-22.9V85.29c0-11.19.26-24.35.39-28.83h-1.05c-.79,4.08-3.29,14.61-4.87,20.4l-13.17,47h-19l-13.29-47c-1.45-5.26-3.69-14.74-4.74-20.27h-1c.26,6.85.52,19.35.52,28.7v38.57H775.79Z"/><path class="cls-1" d="M896.11,33.42h49.77c18.3,0,29.23,11.85,29.23,29.75,0,18.3-11.33,30.15-29.76,30.15H919.68v30.54H896.11Zm43.71,41.73c7.38,0,11.33-4.21,11.33-11.71s-3.82-11.72-11.33-11.72H919.68V75.15Z"/><polygon class="cls-1" points="157.01 0 104.59 0 52.43 0 52.16 0 0 0 0 52.43 26.08 52.43 26.08 104.86 78.24 104.86 78.24 157.28 130.67 157.28 130.67 104.86 78.51 104.86 78.51 52.43 104.59 52.43 130.94 52.43 130.94 104.86 183.36 104.86 183.36 52.43 209.44 52.43 209.44 0 157.01 0"/></g></g></svg>