<svg width="179" height="30" viewBox="0 0 179 30" fill="none" xmlns="http://www.w3.org/2000/svg">
<path d="M56.5497 10.2511H51.1602V6.69901H66.2679V10.2511H60.8746V23.301H56.5497V10.2511Z" fill="#9DFBFA"/>
<path d="M67.3047 14.989C67.3047 9.25982 70.5428 6.409 76.004 6.409C81.4652 6.409 84.7052 9.25982 84.7052 14.989C84.7052 20.7182 81.4432 23.5911 76.004 23.5911C70.5649 23.5911 67.3047 20.7402 67.3047 14.989ZM80.2573 15.5397V14.4567C80.2573 11.5324 78.7888 9.79217 76.004 9.79217C73.2193 9.79217 71.7507 11.5324 71.7507 14.4567V15.5434C71.7507 18.4676 73.2009 20.2079 76.004 20.2079C78.8071 20.2079 80.2573 18.4676 80.2573 15.5434V15.5397Z" fill="#9DFBFA"/>
<path d="M87.6035 6.69901H91.4456L97.4887 14.4089C97.8265 14.8183 98.5901 15.8591 98.8655 16.2942L98.9866 16.2685V6.69901H102.998V23.301H99.1794L92.7765 15.1817C92.4001 14.7138 92.0525 14.2234 91.7357 13.7132L91.6163 13.737V23.3065H87.6035V6.69901Z" fill="#9DFBFA"/>
<path d="M106.623 6.69901H115.757C119.117 6.69901 121.123 8.8743 121.123 12.1602C121.123 15.5195 119.043 17.6948 115.66 17.6948H110.948V23.301H106.623V6.69901ZM114.645 14.3593C116 14.3593 116.725 13.5865 116.725 12.2097C116.725 10.833 116.016 10.0583 114.645 10.0583H110.948V14.3593H114.645Z" fill="#9DFBFA"/>
<path d="M123.441 16.8485V6.69901H127.792V16.7769C127.792 18.9284 128.952 20.2078 131.127 20.2078C133.303 20.2078 134.511 18.9229 134.511 16.7769V6.69901H138.835V16.8485C138.835 21.3203 135.985 23.591 131.126 23.591C126.267 23.591 123.441 21.3203 123.441 16.8485Z" fill="#9DFBFA"/>
<path d="M142.41 6.69901H148.718L150.724 14.0932C150.966 14.8917 151.401 16.6797 151.642 17.8398H151.836C152.029 16.922 152.387 15.3267 152.707 14.0693L154.737 6.69901H160.874V23.301H156.67V16.2207C156.67 14.1666 156.718 11.7508 156.741 10.9284H156.549C156.404 11.6774 155.945 13.6104 155.655 14.6732L153.237 23.301H149.749L147.31 14.6732C147.043 13.7077 146.632 11.9674 146.439 10.9523H146.256C146.304 12.2097 146.351 14.5044 146.351 16.2207V23.301H142.41V6.69901Z" fill="#9DFBFA"/>
<path d="M164.498 6.69901H173.634C176.994 6.69901 179 8.8743 179 12.1602C179 15.5195 176.92 17.6948 173.537 17.6948H168.825V23.301H164.498V6.69901ZM172.522 14.3593C173.877 14.3593 174.602 13.5865 174.602 12.2097C174.602 10.833 173.9 10.0583 172.522 10.0583H168.825V14.3593H172.522Z" fill="#9DFBFA"/>
<path d="M28.8222 0.564148H19.1995H9.62452H9.57496H0V10.1887H4.78748V19.8132H14.3624V29.4359H23.987V19.8132H14.412V10.1887H19.1995H24.0365V19.8132H33.6592V10.1887H38.4467V0.564148H28.8222Z" fill="#9DFBFA"/>
</svg>
