<svg xmlns="http://www.w3.org/2000/svg" viewBox="0 0 954.44 153.95"><defs><style>.cls-1{fill:#9dfbfa;}</style></defs><g id="Layer_2" data-name="Layer 2"><g id="Layer_1-2" data-name="Layer 1"><path class="cls-1" d="M301.53,51.65H272.8V32.71h80.53V51.65H324.6v69.59H301.53Z"/><path class="cls-1" d="M358.87,76.91c0-30.54,17.27-45.75,46.39-45.75s46.39,15.21,46.39,45.75-17.4,45.87-46.39,45.87S358.87,107.58,358.87,76.91Zm69.07,3v-5.8c0-15.59-7.86-24.87-22.68-24.87s-22.68,9.28-22.68,24.87v5.8c0,15.6,7.73,24.87,22.68,24.87S427.94,95.47,427.94,79.87Z"/><path class="cls-1" d="M467.11,32.71H487.6l32.21,41.11c1.81,2.19,5.93,7.73,7.35,10.05l.64-.13v-51h21.39v88.53H528.83l-34.14-43.3a76.29,76.29,0,0,1-5.54-7.86l-.65.13v51H467.11Z"/><path class="cls-1" d="M568.52,32.71h48.71c17.91,0,28.61,11.6,28.61,29.12,0,17.91-11.09,29.51-29.13,29.51H591.58v29.9H568.52ZM611.3,73.56c7.22,0,11.08-4.12,11.08-11.47s-3.73-11.47-11.08-11.47H591.58V73.56Z"/><path class="cls-1" d="M658.2,86.83V32.71h23.2V86.45c0,11.46,6.18,18.29,17.78,18.29s18-6.83,18-18.29V32.71h23.07V86.83c0,23.84-15.21,36-41.11,36S658.2,110.67,658.2,86.83Z"/><path class="cls-1" d="M759.35,32.71H793l10.69,39.43c1.29,4.25,3.61,13.79,4.9,20h1c1-4.9,3-13.41,4.64-20.11l10.82-39.3H857.8v88.53H835.38V83.48c0-11,.26-23.84.39-28.22h-1c-.78,4-3.22,14.3-4.77,20l-12.89,46H798.53l-13-46c-1.41-5.15-3.61-14.43-4.64-19.84h-1c.26,6.7.52,18.94.52,28.09v37.76h-21Z"/><path class="cls-1" d="M877.13,32.71h48.71c17.91,0,28.6,11.6,28.6,29.12,0,17.91-11.08,29.51-29.12,29.51H900.19v29.9H877.13Zm42.78,40.85c7.21,0,11.08-4.12,11.08-11.47s-3.74-11.47-11.08-11.47H900.19V73.56Z"/><polygon class="cls-1" points="153.69 0 102.37 0 51.32 0 51.05 0 0 0 0 51.32 25.53 51.32 25.53 102.63 76.58 102.63 76.58 153.95 127.9 153.95 127.9 102.63 76.84 102.63 76.84 51.32 102.37 51.32 128.16 51.32 128.16 102.63 179.48 102.63 179.48 51.32 205 51.32 205 0 153.69 0"/></g></g></svg>